<svg width="186" height="87" viewBox="0 0 186 87" fill="none" xmlns="http://www.w3.org/2000/svg">
<rect x="0.5" y="0.5" width="185" height="86" fill="#E5E5E5" stroke="black"/>
<path d="M36.2305 45.3203V52H33.9805V34.9375H40.2734C42.1406 34.9375 43.6016 35.4141 44.6562 36.3672C45.7188 37.3203 46.25 38.582 46.25 40.1523C46.25 41.8086 45.7305 43.0859 44.6914 43.9844C43.6602 44.875 42.1797 45.3203 40.25 45.3203H36.2305ZM36.2305 43.4805H40.2734C41.4766 43.4805 42.3984 43.1992 43.0391 42.6367C43.6797 42.0664 44 41.2461 44 40.1758C44 39.1602 43.6797 38.3477 43.0391 37.7383C42.3984 37.1289 41.5195 36.8125 40.4023 36.7891H36.2305V43.4805ZM62.2461 44.0195C62.2461 45.6914 61.9648 47.1523 61.4023 48.4023C60.8398 49.6445 60.043 50.5938 59.0117 51.25C57.9805 51.9062 56.7773 52.2344 55.4023 52.2344C54.0586 52.2344 52.8672 51.9062 51.8281 51.25C50.7891 50.5859 49.9805 49.6445 49.4023 48.4258C48.832 47.1992 48.5391 45.7812 48.5234 44.1719V42.9414C48.5234 41.3008 48.8086 39.8516 49.3789 38.5938C49.9492 37.3359 50.7539 36.375 51.793 35.7109C52.8398 35.0391 54.0352 34.7031 55.3789 34.7031C56.7461 34.7031 57.9492 35.0352 58.9883 35.6992C60.0352 36.3555 60.8398 37.3125 61.4023 38.5703C61.9648 39.8203 62.2461 41.2773 62.2461 42.9414V44.0195ZM60.0078 42.918C60.0078 40.8945 59.6016 39.3438 58.7891 38.2656C57.9766 37.1797 56.8398 36.6367 55.3789 36.6367C53.957 36.6367 52.8359 37.1797 52.0156 38.2656C51.2031 39.3438 50.7852 40.8438 50.7617 42.7656V44.0195C50.7617 45.9805 51.1719 47.5234 51.9922 48.6484C52.8203 49.7656 53.957 50.3242 55.4023 50.3242C56.8555 50.3242 57.9805 49.7969 58.7773 48.7422C59.5742 47.6797 59.9844 46.1602 60.0078 44.1836V42.918ZM69.957 44.0664L67.8711 46.2344V52H65.6211V34.9375H67.8711V43.375L75.4531 34.9375H78.1719L71.457 42.4727L78.6992 52H76.0039L69.957 44.0664ZM90.3125 44.1133H82.918V50.1602H91.5078V52H80.668V34.9375H91.3906V36.7891H82.918V42.2734H90.3125V44.1133ZM96.5703 50.1602H104.656V52H94.3086V34.9375H96.5703V50.1602ZM119.574 44.0195C119.574 45.6914 119.293 47.1523 118.73 48.4023C118.168 49.6445 117.371 50.5938 116.34 51.25C115.309 51.9062 114.105 52.2344 112.73 52.2344C111.387 52.2344 110.195 51.9062 109.156 51.25C108.117 50.5859 107.309 49.6445 106.73 48.4258C106.16 47.1992 105.867 45.7812 105.852 44.1719V42.9414C105.852 41.3008 106.137 39.8516 106.707 38.5938C107.277 37.3359 108.082 36.375 109.121 35.7109C110.168 35.0391 111.363 34.7031 112.707 34.7031C114.074 34.7031 115.277 35.0352 116.316 35.6992C117.363 36.3555 118.168 37.3125 118.73 38.5703C119.293 39.8203 119.574 41.2773 119.574 42.9414V44.0195ZM117.336 42.918C117.336 40.8945 116.93 39.3438 116.117 38.2656C115.305 37.1797 114.168 36.6367 112.707 36.6367C111.285 36.6367 110.164 37.1797 109.344 38.2656C108.531 39.3438 108.113 40.8438 108.09 42.7656V44.0195C108.09 45.9805 108.5 47.5234 109.32 48.6484C110.148 49.7656 111.285 50.3242 112.73 50.3242C114.184 50.3242 115.309 49.7969 116.105 48.7422C116.902 47.6797 117.312 46.1602 117.336 44.1836V42.918ZM135.547 49.7617C134.969 50.5898 134.16 51.2109 133.121 51.625C132.09 52.0312 130.887 52.2344 129.512 52.2344C128.121 52.2344 126.887 51.9102 125.809 51.2617C124.73 50.6055 123.895 49.6758 123.301 48.4727C122.715 47.2695 122.414 45.875 122.398 44.2891V42.8008C122.398 40.2305 122.996 38.2383 124.191 36.8242C125.395 35.4102 127.082 34.7031 129.254 34.7031C131.035 34.7031 132.469 35.1602 133.555 36.0742C134.641 36.9805 135.305 38.2695 135.547 39.9414H133.297C132.875 37.6836 131.531 36.5547 129.266 36.5547C127.758 36.5547 126.613 37.0859 125.832 38.1484C125.059 39.2031 124.668 40.7344 124.66 42.7422V44.1367C124.66 46.0508 125.098 47.5742 125.973 48.707C126.848 49.832 128.031 50.3945 129.523 50.3945C130.367 50.3945 131.105 50.3008 131.738 50.1133C132.371 49.9258 132.895 49.6094 133.309 49.1641V45.332H129.359V43.5039H135.547V49.7617ZM152.434 44.0195C152.434 45.6914 152.152 47.1523 151.59 48.4023C151.027 49.6445 150.23 50.5938 149.199 51.25C148.168 51.9062 146.965 52.2344 145.59 52.2344C144.246 52.2344 143.055 51.9062 142.016 51.25C140.977 50.5859 140.168 49.6445 139.59 48.4258C139.02 47.1992 138.727 45.7812 138.711 44.1719V42.9414C138.711 41.3008 138.996 39.8516 139.566 38.5938C140.137 37.3359 140.941 36.375 141.98 35.7109C143.027 35.0391 144.223 34.7031 145.566 34.7031C146.934 34.7031 148.137 35.0352 149.176 35.6992C150.223 36.3555 151.027 37.3125 151.59 38.5703C152.152 39.8203 152.434 41.2773 152.434 42.9414V44.0195ZM150.195 42.918C150.195 40.8945 149.789 39.3438 148.977 38.2656C148.164 37.1797 147.027 36.6367 145.566 36.6367C144.145 36.6367 143.023 37.1797 142.203 38.2656C141.391 39.3438 140.973 40.8438 140.949 42.7656V44.0195C140.949 45.9805 141.359 47.5234 142.18 48.6484C143.008 49.7656 144.145 50.3242 145.59 50.3242C147.043 50.3242 148.168 49.7969 148.965 48.7422C149.762 47.6797 150.172 46.1602 150.195 44.1836V42.918Z" fill="black"/>
</svg>
