<svg width="17" height="17" viewBox="0 0 17 17" fill="none" xmlns="http://www.w3.org/2000/svg">
<path d="M9.958 13.6746C8.26411 13.6746 6.71578 13.052 5.51993 12.0288L0.909481 16.639C0.805356 16.7429 0.669356 16.7949 0.532825 16.7949C0.396559 16.7949 0.260559 16.7429 0.156168 16.639C0.052043 16.5346 -1.87755e-05 16.3989 -1.87755e-05 16.2624C-1.87755e-05 16.1258 0.052043 15.9896 0.156168 15.8854L4.76662 11.2753C3.74317 10.0799 3.12054 8.53108 3.12054 6.83745C3.12054 3.06717 6.18825 0 9.958 0C13.7283 0 16.7957 3.06717 16.7957 6.83745C16.7957 10.6075 13.7283 13.6746 9.958 13.6746ZM9.958 1.06542C6.77581 1.06542 4.18623 3.65447 4.18623 6.83719C4.18623 10.0194 6.77581 12.609 9.958 12.609C13.1404 12.609 15.73 10.0196 15.73 6.83719C15.73 3.65447 13.1404 1.06542 9.958 1.06542Z" fill="#A8A8A8"/>
</svg>
